<svg width="128" height="128" viewBox="0 0 128 128" fill="none" xmlns="http://www.w3.org/2000/svg">
<path d="M100.985 26H102V99.2308H27C27 79.8088 34.7948 61.1822 48.6696 47.4488C62.5444 33.7154 81.3627 26 100.985 26V26Z" fill="#FFA26E"/>
<path d="M27 26H28.0154C37.7312 26 47.3518 27.8942 56.3281 31.5744C65.3043 35.2546 73.4603 40.6487 80.3304 47.4488C87.2005 54.2489 92.6502 62.3218 96.3683 71.2066C100.086 80.0913 102 89.614 102 99.2308H27V26Z" fill="#FFCDB1"/>
<path d="M27 26C67.9806 26 82.2632 70.5509 82.2632 111L27 99.2441V26Z" fill="#FF7326"/>
</svg>