<svg width="26" height="31" viewBox="0 0 26 31" fill="none" xmlns="http://www.w3.org/2000/svg">
<path d="M25.648 0.5H26V26.148H0C0 19.3457 2.70219 12.8221 7.51213 8.01213C12.3221 3.20219 18.8457 0.5 25.648 0.5V0.5Z" fill="#80E4AD"/>
<path d="M0 0.5H0.352C3.72014 0.5 7.05531 1.16341 10.1671 2.45234C13.2788 3.74127 16.1062 5.63049 18.4879 8.01213C20.8695 10.3938 22.7587 13.2212 24.0477 16.3329C25.3366 19.4447 26 22.7799 26 26.148H0V0.5Z" fill="#B9ECCF"/>
<path d="M0 0.971069C14.2 0.971069 19.149 16.4481 19.149 30.5001L0 26.4161V0.971069Z" fill="#33D37B"/>
</svg>
