<svg width="1040" height="371" viewBox="0 0 1040 371" fill="none" xmlns="http://www.w3.org/2000/svg">
<rect width="1040" height="371" rx="18.0935" fill="#FBFBFB"/>
<path d="M40 331L370.932 244.055L760 200.76L1000 40V331L40 331Z" fill="url(#paint0_linear_2_5468)"/>
<path d="M997.5 40L766.544 196.33C762.246 199.24 757.304 201.06 752.146 201.634L373.259 243.796C371.71 243.968 370.175 244.254 368.667 244.65L40 331" stroke="#FF7E36" stroke-width="5" stroke-linecap="round"/>
<path d="M62.4219 53.4688H55.3906C55.4297 54.4193 55.7422 55.3177 56.3281 56.1641C56.9141 57.0104 57.793 57.7526 58.9648 58.3906C60.1367 59.0156 61.5755 59.4844 63.2812 59.7969L61.3281 63.625C59.362 63.2474 57.6758 62.6354 56.2695 61.7891C54.8633 60.9427 53.7565 59.9076 52.9492 58.6836C52.1419 60.0378 51.0156 61.1836 49.5703 62.1211C48.138 63.0586 46.4062 63.7292 44.375 64.1328L42.3438 60.2656C44.0755 59.9401 45.5339 59.4388 46.7188 58.7617C47.9036 58.0846 48.7891 57.2904 49.375 56.3789C49.974 55.4674 50.2995 54.4974 50.3516 53.4688H43.2812V49.6016H50.3906V46.125H55.3906V49.6016H62.4219V53.4688ZM71.0156 81.5938H66.0938V46.0859H71.0156V81.5938ZM41.1328 65.6562C45.6771 65.6562 49.7852 65.5977 53.457 65.4805C57.1419 65.3503 60.638 65.0703 63.9453 64.6406L64.2578 68.2344C61.4193 68.7292 58.4505 69.0872 55.3516 69.3086V80.5H50.3906V69.582C47.7474 69.6471 45.4688 69.6797 43.5547 69.6797H41.7578L41.1328 65.6562ZM85.5469 47.5703C87.0443 47.5573 88.4245 47.8177 89.6875 48.3516C90.9635 48.8854 92.0312 49.6341 92.8906 50.5977C93.763 51.5612 94.3555 52.6745 94.668 53.9375H100.625V46.0469H105.586V65.1484H100.625V57.9219H94.707C94.4076 59.2109 93.8216 60.3568 92.9492 61.3594C92.0898 62.349 91.0156 63.1172 89.7266 63.6641C88.4505 64.2109 87.0573 64.4844 85.5469 64.4844C83.75 64.4844 82.1289 64.1198 80.6836 63.3906C79.2383 62.6615 78.1055 61.6523 77.2852 60.3633C76.4779 59.0612 76.0807 57.5964 76.0938 55.9688C76.0807 54.3672 76.4779 52.9284 77.2852 51.6523C78.1055 50.3633 79.2383 49.3607 80.6836 48.6445C82.1289 47.9154 83.75 47.5573 85.5469 47.5703ZM85.5469 51.7109C84.6224 51.6979 83.7956 51.8672 83.0664 52.2188C82.3503 52.5573 81.7904 53.0521 81.3867 53.7031C80.9961 54.3411 80.8073 55.0964 80.8203 55.9688C80.8073 56.8411 80.9961 57.6029 81.3867 58.2539C81.7904 58.9049 82.3503 59.4128 83.0664 59.7773C83.7956 60.1289 84.6224 60.3047 85.5469 60.3047C86.4453 60.3047 87.2461 60.1289 87.9492 59.7773C88.6523 59.4128 89.1992 58.9049 89.5898 58.2539C89.9935 57.6029 90.1953 56.8411 90.1953 55.9688C90.1953 55.0964 89.9935 54.3411 89.5898 53.7031C89.1992 53.0521 88.6523 52.5573 87.9492 52.2188C87.2461 51.8672 86.4453 51.6979 85.5469 51.7109ZM86.7969 70.1484H100.625V66.7109H105.586V81.2031H81.875V66.7109H86.7969V70.1484ZM100.625 77.1797V73.9766H86.7969V77.1797H100.625ZM142.695 65.4219H134.688V67.4922H138.789V75.8906H118.867V77.9609H139.844V81.3594H113.906V72.7266H133.867V70.9297H113.867V67.4922H118.203V65.4219H110.156V61.7891H142.695V65.4219ZM138.75 54.9922H119.18V56.75H139.375V60.1484H114.219V51.8281H133.75V50.0312H114.141V46.6719H138.75V54.9922ZM129.688 67.4922V65.4219H123.164V67.4922H129.688ZM270.312 51.8281H259.297V59.0156C262.461 59.0026 265.085 58.9115 267.168 58.7422C269.264 58.5729 271.341 58.2734 273.398 57.8438L273.906 61.7109C271.901 62.1797 269.818 62.4922 267.656 62.6484C265.495 62.8047 262.682 62.8828 259.219 62.8828H257.305H254.336V47.8828H270.312V51.8281ZM281.289 52.7656H286.094V56.8281H281.289V63.7422H276.289V46.0469H281.289V52.7656ZM281.289 74.9922H262.656V77.2188H282.305V81.2031H257.773V71.2422H276.328V69.1328H257.695V65.1875H281.289V74.9922ZM301.094 50.8906C301.081 52.5312 301.361 54.0677 301.934 55.5C302.52 56.9323 303.418 58.1953 304.629 59.2891C305.853 60.3828 307.383 61.2161 309.219 61.7891L306.602 65.6953C304.727 65.0443 303.125 64.1263 301.797 62.9414C300.482 61.7565 299.447 60.3438 298.691 58.7031C297.871 60.6172 296.732 62.2708 295.273 63.6641C293.815 65.0443 292.044 66.0859 289.961 66.7891L287.344 62.8047C289.297 62.1797 290.924 61.2747 292.227 60.0898C293.529 58.8919 294.486 57.5312 295.098 56.0078C295.723 54.4714 296.042 52.8438 296.055 51.125V47.8828H301.094V50.8906ZM317.617 66.8672H312.656V56.6328H305.977V52.5703H312.656V46.0469H317.617V66.8672ZM305.469 67.8047C307.982 67.8047 310.156 68.0781 311.992 68.625C313.828 69.1719 315.241 69.9661 316.23 71.0078C317.22 72.0365 317.721 73.2734 317.734 74.7188C317.721 76.1641 317.22 77.401 316.23 78.4297C315.241 79.4583 313.828 80.2396 311.992 80.7734C310.169 81.3203 307.995 81.5938 305.469 81.5938C302.943 81.5938 300.762 81.3203 298.926 80.7734C297.103 80.2396 295.697 79.4583 294.707 78.4297C293.73 77.401 293.242 76.1641 293.242 74.7188C293.242 73.2734 293.73 72.0365 294.707 71.0078C295.697 69.9661 297.109 69.1719 298.945 68.625C300.781 68.0781 302.956 67.8047 305.469 67.8047ZM305.469 71.6719C303.086 71.6719 301.276 71.9258 300.039 72.4336C298.815 72.9414 298.203 73.7031 298.203 74.7188C298.203 75.6953 298.822 76.444 300.059 76.9648C301.309 77.4727 303.112 77.7266 305.469 77.7266C307.839 77.7266 309.648 77.4727 310.898 76.9648C312.148 76.444 312.773 75.6953 312.773 74.7188C312.773 73.7161 312.148 72.9609 310.898 72.4531C309.661 71.9323 307.852 71.6719 305.469 71.6719Z" fill="#141414"/>
<path d="M165.781 78.3906C163.659 78.3906 161.751 78.0456 160.059 77.3555C158.379 76.6654 157.064 75.7148 156.113 74.5039C155.163 73.2799 154.688 71.9062 154.688 70.3828C154.688 69.224 154.961 68.1432 155.508 67.1406C156.055 66.138 156.803 65.3112 157.754 64.6602C158.717 63.9961 159.779 63.5729 160.938 63.3906V63.1953C159.935 63 159.043 62.6094 158.262 62.0234C157.48 61.4245 156.868 60.6823 156.426 59.7969C155.996 58.9115 155.781 57.9609 155.781 56.9453C155.781 55.487 156.211 54.1849 157.07 53.0391C157.93 51.8802 159.121 50.9753 160.645 50.3242C162.168 49.6602 163.88 49.3281 165.781 49.3281C167.682 49.3281 169.395 49.6602 170.918 50.3242C172.441 50.9753 173.633 51.8802 174.492 53.0391C175.365 54.1849 175.807 55.487 175.82 56.9453C175.807 57.974 175.579 58.931 175.137 59.8164C174.694 60.6888 174.082 61.4245 173.301 62.0234C172.52 62.6094 171.641 63 170.664 63.1953V63.3906C171.81 63.5729 172.852 63.9961 173.789 64.6602C174.74 65.3112 175.488 66.138 176.035 67.1406C176.595 68.1432 176.875 69.224 176.875 70.3828C176.875 71.9062 176.4 73.2799 175.449 74.5039C174.499 75.7148 173.177 76.6654 171.484 77.3555C169.805 78.0456 167.904 78.3906 165.781 78.3906ZM165.781 73.8984C166.758 73.8984 167.617 73.7292 168.359 73.3906C169.115 73.0391 169.701 72.5508 170.117 71.9258C170.534 71.3008 170.742 70.5911 170.742 69.7969C170.742 68.9896 170.527 68.2604 170.098 67.6094C169.681 66.9583 169.095 66.4505 168.34 66.0859C167.585 65.7214 166.732 65.5391 165.781 65.5391C164.831 65.5391 163.971 65.7214 163.203 66.0859C162.448 66.4505 161.855 66.9583 161.426 67.6094C161.009 68.2604 160.807 68.9896 160.82 69.7969C160.807 70.5911 161.003 71.3008 161.406 71.9258C161.823 72.5508 162.409 73.0391 163.164 73.3906C163.919 73.7292 164.792 73.8984 165.781 73.8984ZM165.781 61.3984C166.602 61.3984 167.337 61.2357 167.988 60.9102C168.652 60.5716 169.167 60.1094 169.531 59.5234C169.896 58.9375 170.078 58.2734 170.078 57.5312C170.078 56.8151 169.896 56.1706 169.531 55.5977C169.167 55.0247 168.659 54.582 168.008 54.2695C167.357 53.944 166.615 53.7812 165.781 53.7812C164.948 53.7812 164.206 53.9375 163.555 54.25C162.917 54.5625 162.415 55.0052 162.051 55.5781C161.699 56.151 161.523 56.8021 161.523 57.5312C161.523 58.2734 161.706 58.9375 162.07 59.5234C162.435 60.1094 162.936 60.5716 163.574 60.9102C164.225 61.2357 164.961 61.3984 165.781 61.3984ZM191.523 78.3906C189.401 78.3906 187.493 78.0456 185.801 77.3555C184.121 76.6654 182.806 75.7148 181.855 74.5039C180.905 73.2799 180.43 71.9062 180.43 70.3828C180.43 69.224 180.703 68.1432 181.25 67.1406C181.797 66.138 182.546 65.3112 183.496 64.6602C184.46 63.9961 185.521 63.5729 186.68 63.3906V63.1953C185.677 63 184.785 62.6094 184.004 62.0234C183.223 61.4245 182.611 60.6823 182.168 59.7969C181.738 58.9115 181.523 57.9609 181.523 56.9453C181.523 55.487 181.953 54.1849 182.812 53.0391C183.672 51.8802 184.863 50.9753 186.387 50.3242C187.91 49.6602 189.622 49.3281 191.523 49.3281C193.424 49.3281 195.137 49.6602 196.66 50.3242C198.184 50.9753 199.375 51.8802 200.234 53.0391C201.107 54.1849 201.549 55.487 201.562 56.9453C201.549 57.974 201.322 58.931 200.879 59.8164C200.436 60.6888 199.824 61.4245 199.043 62.0234C198.262 62.6094 197.383 63 196.406 63.1953V63.3906C197.552 63.5729 198.594 63.9961 199.531 64.6602C200.482 65.3112 201.23 66.138 201.777 67.1406C202.337 68.1432 202.617 69.224 202.617 70.3828C202.617 71.9062 202.142 73.2799 201.191 74.5039C200.241 75.7148 198.919 76.6654 197.227 77.3555C195.547 78.0456 193.646 78.3906 191.523 78.3906ZM191.523 73.8984C192.5 73.8984 193.359 73.7292 194.102 73.3906C194.857 73.0391 195.443 72.5508 195.859 71.9258C196.276 71.3008 196.484 70.5911 196.484 69.7969C196.484 68.9896 196.27 68.2604 195.84 67.6094C195.423 66.9583 194.837 66.4505 194.082 66.0859C193.327 65.7214 192.474 65.5391 191.523 65.5391C190.573 65.5391 189.714 65.7214 188.945 66.0859C188.19 66.4505 187.598 66.9583 187.168 67.6094C186.751 68.2604 186.549 68.9896 186.562 69.7969C186.549 70.5911 186.745 71.3008 187.148 71.9258C187.565 72.5508 188.151 73.0391 188.906 73.3906C189.661 73.7292 190.534 73.8984 191.523 73.8984ZM191.523 61.3984C192.344 61.3984 193.079 61.2357 193.73 60.9102C194.395 60.5716 194.909 60.1094 195.273 59.5234C195.638 58.9375 195.82 58.2734 195.82 57.5312C195.82 56.8151 195.638 56.1706 195.273 55.5977C194.909 55.0247 194.401 54.582 193.75 54.2695C193.099 53.944 192.357 53.7812 191.523 53.7812C190.69 53.7812 189.948 53.9375 189.297 54.25C188.659 54.5625 188.158 55.0052 187.793 55.5781C187.441 56.151 187.266 56.8021 187.266 57.5312C187.266 58.2734 187.448 58.9375 187.812 59.5234C188.177 60.1094 188.678 60.5716 189.316 60.9102C189.967 61.2357 190.703 61.3984 191.523 61.3984ZM214.062 63.8594C212.682 63.8594 211.504 63.5469 210.527 62.9219C209.551 62.2839 208.809 61.3984 208.301 60.2656C207.793 59.1328 207.539 57.8177 207.539 56.3203C207.539 54.8229 207.793 53.5013 208.301 52.3555C208.822 51.2096 209.57 50.3242 210.547 49.6992C211.536 49.0612 212.708 48.7422 214.062 48.7422C215.456 48.7422 216.634 49.0612 217.598 49.6992C218.574 50.3242 219.31 51.2096 219.805 52.3555C220.312 53.4883 220.573 54.8099 220.586 56.3203C220.573 57.8307 220.312 59.1523 219.805 60.2852C219.297 61.418 218.555 62.2969 217.578 62.9219C216.602 63.5469 215.43 63.8594 214.062 63.8594ZM214.062 60.3828C214.883 60.3828 215.501 60.0182 215.918 59.2891C216.348 58.5599 216.576 57.5703 216.602 56.3203C216.576 55.0443 216.354 54.0417 215.938 53.3125C215.534 52.5833 214.909 52.2188 214.062 52.2188C213.242 52.2188 212.611 52.5964 212.168 53.3516C211.738 54.0938 211.523 55.0833 211.523 56.3203C211.523 57.5573 211.745 58.5469 212.188 59.2891C212.63 60.0182 213.255 60.3828 214.062 60.3828ZM233.125 78.9375C231.758 78.9375 230.586 78.625 229.609 78C228.633 77.362 227.891 76.4766 227.383 75.3438C226.888 74.2109 226.641 72.8958 226.641 71.3984C226.641 69.901 226.895 68.5794 227.402 67.4336C227.923 66.2878 228.672 65.4023 229.648 64.7773C230.625 64.1393 231.784 63.8203 233.125 63.8203C234.518 63.8203 235.703 64.1393 236.68 64.7773C237.656 65.4023 238.398 66.2878 238.906 67.4336C239.414 68.5664 239.674 69.888 239.688 71.3984C239.674 72.9089 239.414 74.2305 238.906 75.3633C238.398 76.4961 237.65 77.375 236.66 78C235.684 78.625 234.505 78.9375 233.125 78.9375ZM233.125 75.4609C233.958 75.4609 234.59 75.1029 235.02 74.3867C235.449 73.6706 235.677 72.6745 235.703 71.3984C235.677 70.1224 235.456 69.1263 235.039 68.4102C234.622 67.681 233.984 67.3229 233.125 67.3359C232.331 67.3359 231.712 67.707 231.27 68.4492C230.84 69.1914 230.625 70.1745 230.625 71.3984C230.625 72.6484 230.84 73.638 231.27 74.3672C231.712 75.0964 232.331 75.4609 233.125 75.4609ZM231.055 49.7188H235.43L215.977 78H211.602L231.055 49.7188Z" fill="#FF7E36"/>
<path d="M814.98 319.809L815.098 316.898L812.637 318.461L811.895 317.172L814.492 315.844L811.895 314.496L812.637 313.207L815.098 314.77L814.98 311.859H816.465L816.328 314.77L818.789 313.207L819.551 314.496L816.953 315.844L819.551 317.172L818.789 318.461L816.328 316.898L816.465 319.809H814.98ZM826.797 324.438L831.699 319.496C832.292 318.871 832.744 318.37 833.057 317.992C833.369 317.615 833.607 317.247 833.77 316.889C833.939 316.524 834.023 316.143 834.023 315.746C834.023 315.29 833.91 314.89 833.682 314.545C833.454 314.2 833.141 313.933 832.744 313.744C832.347 313.555 831.901 313.461 831.406 313.461C830.892 313.461 830.439 313.565 830.049 313.773C829.658 313.982 829.355 314.275 829.141 314.652C828.932 315.03 828.828 315.466 828.828 315.961H826.797C826.79 315.115 826.986 314.366 827.383 313.715C827.78 313.064 828.333 312.559 829.043 312.201C829.753 311.843 830.553 311.664 831.445 311.664C832.344 311.664 833.141 311.84 833.838 312.191C834.541 312.536 835.088 313.015 835.479 313.627C835.869 314.239 836.068 314.926 836.074 315.688C836.068 316.228 835.964 316.749 835.762 317.25C835.56 317.745 835.215 318.298 834.727 318.91C834.238 319.516 833.548 320.258 832.656 321.137L829.785 324.047V324.164H836.309V326H826.797V324.438ZM843.613 326.195C842.526 326.195 841.592 325.912 840.811 325.346C840.036 324.779 839.443 323.952 839.033 322.865C838.623 321.771 838.418 320.46 838.418 318.93C838.418 317.413 838.623 316.111 839.033 315.023C839.45 313.93 840.049 313.096 840.83 312.523C841.611 311.951 842.539 311.664 843.613 311.664C844.688 311.664 845.615 311.951 846.396 312.523C847.178 313.096 847.773 313.93 848.184 315.023C848.6 316.111 848.809 317.413 848.809 318.93C848.809 320.46 848.604 321.768 848.193 322.855C847.783 323.943 847.188 324.773 846.406 325.346C845.625 325.912 844.694 326.195 843.613 326.195ZM843.613 324.34C844.251 324.34 844.798 324.135 845.254 323.725C845.71 323.308 846.058 322.696 846.299 321.889C846.54 321.081 846.66 320.095 846.66 318.93C846.66 317.771 846.536 316.785 846.289 315.971C846.048 315.15 845.7 314.532 845.244 314.115C844.788 313.692 844.245 313.48 843.613 313.48C842.982 313.48 842.438 313.692 841.982 314.115C841.527 314.532 841.175 315.15 840.928 315.971C840.687 316.785 840.566 317.771 840.566 318.93C840.566 320.095 840.687 321.081 840.928 321.889C841.169 322.696 841.517 323.308 841.973 323.725C842.428 324.135 842.975 324.34 843.613 324.34ZM851.035 324.438L855.938 319.496C856.53 318.871 856.982 318.37 857.295 317.992C857.607 317.615 857.845 317.247 858.008 316.889C858.177 316.524 858.262 316.143 858.262 315.746C858.262 315.29 858.148 314.89 857.92 314.545C857.692 314.2 857.38 313.933 856.982 313.744C856.585 313.555 856.139 313.461 855.645 313.461C855.13 313.461 854.678 313.565 854.287 313.773C853.896 313.982 853.594 314.275 853.379 314.652C853.171 315.03 853.066 315.466 853.066 315.961H851.035C851.029 315.115 851.224 314.366 851.621 313.715C852.018 313.064 852.572 312.559 853.281 312.201C853.991 311.843 854.792 311.664 855.684 311.664C856.582 311.664 857.38 311.84 858.076 312.191C858.779 312.536 859.326 313.015 859.717 313.627C860.107 314.239 860.306 314.926 860.312 315.688C860.306 316.228 860.202 316.749 860 317.25C859.798 317.745 859.453 318.298 858.965 318.91C858.477 319.516 857.786 320.258 856.895 321.137L854.023 324.047V324.164H860.547V326H851.035V324.438ZM862.305 321.508L868.555 311.859H871.211V321.43H873.145V323.246H871.211V326H869.18V323.246H862.305V321.508ZM869.18 321.43V314.418H869.023L864.57 321.312V321.43H869.18ZM885.156 313.422H874.727V311.938H879.023V310.082H880.879V311.938H885.156V313.422ZM879.941 314.203C880.775 314.21 881.51 314.346 882.148 314.613C882.793 314.874 883.291 315.245 883.643 315.727C884.001 316.202 884.18 316.755 884.18 317.387C884.18 318.018 884.001 318.575 883.643 319.057C883.291 319.538 882.793 319.913 882.148 320.18C881.51 320.44 880.775 320.57 879.941 320.57C879.102 320.57 878.359 320.44 877.715 320.18C877.07 319.913 876.569 319.538 876.211 319.057C875.859 318.575 875.684 318.018 875.684 317.387C875.684 316.755 875.859 316.202 876.211 315.727C876.569 315.245 877.07 314.874 877.715 314.613C878.359 314.346 879.102 314.21 879.941 314.203ZM879.941 315.629C879.447 315.629 879.014 315.701 878.643 315.844C878.271 315.987 877.982 316.192 877.773 316.459C877.572 316.726 877.474 317.035 877.48 317.387C877.474 317.927 877.692 318.354 878.135 318.666C878.584 318.972 879.186 319.125 879.941 319.125C880.69 319.125 881.292 318.972 881.748 318.666C882.204 318.354 882.435 317.927 882.441 317.387C882.435 317.035 882.327 316.726 882.119 316.459C881.911 316.192 881.618 315.987 881.24 315.844C880.863 315.701 880.43 315.629 879.941 315.629ZM888.457 314.906H890.996V316.449H888.457V321.098H886.602V310.16H888.457V314.906ZM888.457 327.66H886.602V323.5H876.895V321.996H888.457V327.66ZM906.582 323.109H904.727V317.152H899.922V315.668H904.727V313.832H899.922V312.348H904.727V310.18H906.582V323.109ZM907.031 327.289H895.176V321.977H897.051V325.785H907.031V327.289ZM894.863 319.047C896.094 319.047 897.272 319.001 898.398 318.91C899.531 318.819 900.697 318.663 901.895 318.441L902.09 319.965C900.814 320.206 899.58 320.372 898.389 320.463C897.197 320.548 895.859 320.596 894.375 320.609H893.027V311.391H894.863V319.047ZM923.457 319.711H918.164V323.988H925.293V325.512H909.277V323.988H916.328V319.711H911.27V311.508H923.301V313.012H913.125V318.227H923.457V319.711ZM936.875 311.664C937.826 311.664 938.701 311.879 939.502 312.309C940.309 312.732 940.967 313.448 941.475 314.457C941.989 315.46 942.246 316.781 942.246 318.422C942.246 320.056 942.021 321.456 941.572 322.621C941.13 323.786 940.492 324.675 939.658 325.287C938.831 325.893 937.852 326.195 936.719 326.195C935.866 326.195 935.098 326.033 934.414 325.707C933.737 325.375 933.184 324.916 932.754 324.33C932.331 323.738 932.064 323.057 931.953 322.289H934.082C934.232 322.908 934.535 323.402 934.99 323.773C935.452 324.138 936.029 324.32 936.719 324.32C937.441 324.32 938.06 324.118 938.574 323.715C939.095 323.305 939.492 322.715 939.766 321.947C940.046 321.173 940.189 320.251 940.195 319.184H940.02C939.635 319.783 939.124 320.251 938.486 320.59C937.855 320.928 937.161 321.098 936.406 321.098C935.566 321.098 934.798 320.899 934.102 320.502C933.405 320.105 932.852 319.551 932.441 318.842C932.038 318.132 931.836 317.335 931.836 316.449C931.836 315.557 932.044 314.747 932.461 314.018C932.884 313.288 933.477 312.715 934.238 312.299C935.007 311.876 935.885 311.664 936.875 311.664ZM936.914 313.461C936.354 313.461 935.846 313.594 935.391 313.861C934.935 314.122 934.577 314.48 934.316 314.936C934.056 315.385 933.926 315.876 933.926 316.41C933.926 316.951 934.053 317.445 934.307 317.895C934.561 318.344 934.912 318.699 935.361 318.959C935.811 319.213 936.315 319.34 936.875 319.34C937.428 319.34 937.936 319.203 938.398 318.93C938.861 318.656 939.225 318.295 939.492 317.846C939.766 317.39 939.902 316.905 939.902 316.391C939.902 315.883 939.772 315.404 939.512 314.955C939.258 314.506 938.9 314.145 938.438 313.871C937.982 313.598 937.474 313.461 936.914 313.461ZM958.457 320.434H956.602V319.594H953.184V318.422H956.602V310.18H958.457V320.434ZM945.176 316.625C949.245 316.625 952.624 316.482 955.312 316.195L955.41 317.387C953.932 317.589 952.253 317.738 950.371 317.836V320.473H948.535V317.914C947.728 317.94 946.576 317.953 945.078 317.953H944.082L943.867 316.625H945.176ZM958.457 324.789H948.379V326.137H958.984V327.484H946.562V323.559H956.621V322.309H946.484V321.02H958.457V324.789ZM949.551 310.473C950.41 310.473 951.169 310.583 951.826 310.805C952.484 311.02 952.995 311.326 953.359 311.723C953.73 312.12 953.919 312.582 953.926 313.109C953.919 313.65 953.734 314.118 953.369 314.516C953.005 314.906 952.493 315.206 951.836 315.414C951.178 315.622 950.417 315.727 949.551 315.727C948.665 315.727 947.891 315.622 947.227 315.414C946.569 315.206 946.061 314.906 945.703 314.516C945.345 314.118 945.169 313.65 945.176 313.109C945.169 312.582 945.345 312.12 945.703 311.723C946.068 311.326 946.579 311.02 947.236 310.805C947.9 310.583 948.672 310.473 949.551 310.473ZM949.551 311.723C949.017 311.723 948.551 311.781 948.154 311.898C947.757 312.009 947.451 312.169 947.236 312.377C947.021 312.585 946.914 312.829 946.914 313.109C946.914 313.533 947.152 313.868 947.627 314.115C948.102 314.356 948.743 314.477 949.551 314.477C950.345 314.477 950.98 314.353 951.455 314.105C951.93 313.858 952.168 313.526 952.168 313.109C952.168 312.829 952.061 312.585 951.846 312.377C951.631 312.169 951.325 312.009 950.928 311.898C950.531 311.781 950.072 311.723 949.551 311.723ZM980.625 327.66H978.75V310.16H980.625V327.66ZM975.41 312.035C975.41 314.743 974.762 317.152 973.467 319.262C972.178 321.365 970.098 323.103 967.227 324.477L966.25 322.973C968.548 321.879 970.29 320.548 971.475 318.979C972.666 317.41 973.353 315.59 973.535 313.52H967.09V312.035H975.41ZM997.891 312.484H992.559C992.591 313.109 992.868 313.702 993.389 314.262C993.916 314.822 994.619 315.297 995.498 315.688C996.383 316.078 997.363 316.339 998.438 316.469L997.734 317.934C996.738 317.803 995.811 317.569 994.951 317.23C994.098 316.885 993.359 316.452 992.734 315.932C992.109 315.411 991.641 314.828 991.328 314.184C991.016 314.828 990.547 315.411 989.922 315.932C989.303 316.452 988.564 316.885 987.705 317.23C986.852 317.569 985.931 317.803 984.941 317.934L984.238 316.469C985.312 316.339 986.289 316.078 987.168 315.688C988.053 315.297 988.753 314.822 989.268 314.262C989.788 313.702 990.065 313.109 990.098 312.484H984.824V311H997.891V312.484ZM999.355 320.57H992.402V323.969H990.566V320.57H983.34V319.066H999.355V320.57ZM997.578 327.289H985.332V322.289H987.188V325.785H997.578V327.289Z" fill="#B0B0B0"/>
<defs>
<linearGradient id="paint0_linear_2_5468" x1="520" y1="331" x2="520" y2="40" gradientUnits="userSpaceOnUse">
<stop stop-color="#FF7E36" stop-opacity="0"/>
<stop offset="0.64981" stop-color="#FF7E36" stop-opacity="0.5"/>
<stop offset="1" stop-color="#FF7E36" stop-opacity="0.5"/>
</linearGradient>
</defs>
</svg>
