<svg width="1040" height="371" viewBox="0 0 1040 371" fill="none" xmlns="http://www.w3.org/2000/svg">
<rect width="1040" height="371" rx="18.0935" fill="#FBFBFB" style="fill:#FBFBFB;fill:color(display-p3 0.9843 0.9843 0.9843);fill-opacity:1;"/>
<path d="M40 331L370.932 244.055L760 200.76L1000 40V331L40 331Z" fill="url(#paint0_linear_11786_982)" style=""/>
<path d="M997.5 40L766.544 196.33C762.246 199.24 757.304 201.06 752.146 201.634L373.259 243.796C371.71 243.968 370.175 244.254 368.667 244.65L40 331" stroke="#FF7E36" style="stroke:#FF7E36;stroke:color(display-p3 1.0000 0.4941 0.2118);stroke-opacity:1;" stroke-width="5" stroke-linecap="round"/>
<path d="M62.4219 53.4688H55.3906C55.4297 54.4193 55.7422 55.3177 56.3281 56.1641C56.9141 57.0104 57.793 57.7526 58.9648 58.3906C60.1367 59.0156 61.5755 59.4844 63.2812 59.7969L61.3281 63.625C59.362 63.2474 57.6758 62.6354 56.2695 61.7891C54.8633 60.9427 53.7565 59.9076 52.9492 58.6836C52.1419 60.0378 51.0156 61.1836 49.5703 62.1211C48.138 63.0586 46.4062 63.7292 44.375 64.1328L42.3438 60.2656C44.0755 59.9401 45.5339 59.4388 46.7188 58.7617C47.9036 58.0846 48.7891 57.2904 49.375 56.3789C49.974 55.4674 50.2995 54.4974 50.3516 53.4688H43.2812V49.6016H50.3906V46.125H55.3906V49.6016H62.4219V53.4688ZM71.0156 81.5938H66.0938V46.0859H71.0156V81.5938ZM41.1328 65.6562C45.6771 65.6562 49.7852 65.5977 53.457 65.4805C57.1419 65.3503 60.638 65.0703 63.9453 64.6406L64.2578 68.2344C61.4193 68.7292 58.4505 69.0872 55.3516 69.3086V80.5H50.3906V69.582C47.7474 69.6471 45.4688 69.6797 43.5547 69.6797H41.7578L41.1328 65.6562ZM85.5469 47.5703C87.0443 47.5573 88.4245 47.8177 89.6875 48.3516C90.9635 48.8854 92.0312 49.6341 92.8906 50.5977C93.763 51.5612 94.3555 52.6745 94.668 53.9375H100.625V46.0469H105.586V65.1484H100.625V57.9219H94.707C94.4076 59.2109 93.8216 60.3568 92.9492 61.3594C92.0898 62.349 91.0156 63.1172 89.7266 63.6641C88.4505 64.2109 87.0573 64.4844 85.5469 64.4844C83.75 64.4844 82.1289 64.1198 80.6836 63.3906C79.2383 62.6615 78.1055 61.6523 77.2852 60.3633C76.4779 59.0612 76.0807 57.5964 76.0938 55.9688C76.0807 54.3672 76.4779 52.9284 77.2852 51.6523C78.1055 50.3633 79.2383 49.3607 80.6836 48.6445C82.1289 47.9154 83.75 47.5573 85.5469 47.5703ZM85.5469 51.7109C84.6224 51.6979 83.7956 51.8672 83.0664 52.2188C82.3503 52.5573 81.7904 53.0521 81.3867 53.7031C80.9961 54.3411 80.8073 55.0964 80.8203 55.9688C80.8073 56.8411 80.9961 57.6029 81.3867 58.2539C81.7904 58.9049 82.3503 59.4128 83.0664 59.7773C83.7956 60.1289 84.6224 60.3047 85.5469 60.3047C86.4453 60.3047 87.2461 60.1289 87.9492 59.7773C88.6523 59.4128 89.1992 58.9049 89.5898 58.2539C89.9935 57.6029 90.1953 56.8411 90.1953 55.9688C90.1953 55.0964 89.9935 54.3411 89.5898 53.7031C89.1992 53.0521 88.6523 52.5573 87.9492 52.2188C87.2461 51.8672 86.4453 51.6979 85.5469 51.7109ZM86.7969 70.1484H100.625V66.7109H105.586V81.2031H81.875V66.7109H86.7969V70.1484ZM100.625 77.1797V73.9766H86.7969V77.1797H100.625ZM142.695 65.4219H134.688V67.4922H138.789V75.8906H118.867V77.9609H139.844V81.3594H113.906V72.7266H133.867V70.9297H113.867V67.4922H118.203V65.4219H110.156V61.7891H142.695V65.4219ZM138.75 54.9922H119.18V56.75H139.375V60.1484H114.219V51.8281H133.75V50.0312H114.141V46.6719H138.75V54.9922ZM129.688 67.4922V65.4219H123.164V67.4922H129.688ZM270.977 51.8281H259.961V59.0156C263.125 59.0026 265.749 58.9115 267.832 58.7422C269.928 58.5729 272.005 58.2734 274.062 57.8438L274.57 61.7109C272.565 62.1797 270.482 62.4922 268.32 62.6484C266.159 62.8047 263.346 62.8828 259.883 62.8828H257.969H255V47.8828H270.977V51.8281ZM281.953 52.7656H286.758V56.8281H281.953V63.7422H276.953V46.0469H281.953V52.7656ZM281.953 74.9922H263.32V77.2188H282.969V81.2031H258.438V71.2422H276.992V69.1328H258.359V65.1875H281.953V74.9922ZM301.758 50.8906C301.745 52.5312 302.025 54.0677 302.598 55.5C303.184 56.9323 304.082 58.1953 305.293 59.2891C306.517 60.3828 308.047 61.2161 309.883 61.7891L307.266 65.6953C305.391 65.0443 303.789 64.1263 302.461 62.9414C301.146 61.7565 300.111 60.3438 299.355 58.7031C298.535 60.6172 297.396 62.2708 295.938 63.6641C294.479 65.0443 292.708 66.0859 290.625 66.7891L288.008 62.8047C289.961 62.1797 291.589 61.2747 292.891 60.0898C294.193 58.8919 295.15 57.5312 295.762 56.0078C296.387 54.4714 296.706 52.8438 296.719 51.125V47.8828H301.758V50.8906ZM318.281 66.8672H313.32V56.6328H306.641V52.5703H313.32V46.0469H318.281V66.8672ZM306.133 67.8047C308.646 67.8047 310.82 68.0781 312.656 68.625C314.492 69.1719 315.905 69.9661 316.895 71.0078C317.884 72.0365 318.385 73.2734 318.398 74.7188C318.385 76.1641 317.884 77.401 316.895 78.4297C315.905 79.4583 314.492 80.2396 312.656 80.7734C310.833 81.3203 308.659 81.5938 306.133 81.5938C303.607 81.5938 301.426 81.3203 299.59 80.7734C297.767 80.2396 296.361 79.4583 295.371 78.4297C294.395 77.401 293.906 76.1641 293.906 74.7188C293.906 73.2734 294.395 72.0365 295.371 71.0078C296.361 69.9661 297.773 69.1719 299.609 68.625C301.445 68.0781 303.62 67.8047 306.133 67.8047ZM306.133 71.6719C303.75 71.6719 301.94 71.9258 300.703 72.4336C299.479 72.9414 298.867 73.7031 298.867 74.7188C298.867 75.6953 299.486 76.444 300.723 76.9648C301.973 77.4727 303.776 77.7266 306.133 77.7266C308.503 77.7266 310.312 77.4727 311.562 76.9648C312.812 76.444 313.438 75.6953 313.438 74.7188C313.438 73.7161 312.812 72.9609 311.562 72.4531C310.326 71.9323 308.516 71.6719 306.133 71.6719Z" fill="#141414" style="fill:#141414;fill:color(display-p3 0.0800 0.0800 0.0800);fill-opacity:1;"/>
<path d="M165.781 78.3906C163.659 78.3906 161.751 78.0456 160.059 77.3555C158.379 76.6654 157.064 75.7148 156.113 74.5039C155.163 73.2799 154.688 71.9062 154.688 70.3828C154.688 69.224 154.961 68.1432 155.508 67.1406C156.055 66.138 156.803 65.3112 157.754 64.6602C158.717 63.9961 159.779 63.5729 160.938 63.3906V63.1953C159.935 63 159.043 62.6094 158.262 62.0234C157.48 61.4245 156.868 60.6823 156.426 59.7969C155.996 58.9115 155.781 57.9609 155.781 56.9453C155.781 55.487 156.211 54.1849 157.07 53.0391C157.93 51.8802 159.121 50.9753 160.645 50.3242C162.168 49.6602 163.88 49.3281 165.781 49.3281C167.682 49.3281 169.395 49.6602 170.918 50.3242C172.441 50.9753 173.633 51.8802 174.492 53.0391C175.365 54.1849 175.807 55.487 175.82 56.9453C175.807 57.974 175.579 58.931 175.137 59.8164C174.694 60.6888 174.082 61.4245 173.301 62.0234C172.52 62.6094 171.641 63 170.664 63.1953V63.3906C171.81 63.5729 172.852 63.9961 173.789 64.6602C174.74 65.3112 175.488 66.138 176.035 67.1406C176.595 68.1432 176.875 69.224 176.875 70.3828C176.875 71.9062 176.4 73.2799 175.449 74.5039C174.499 75.7148 173.177 76.6654 171.484 77.3555C169.805 78.0456 167.904 78.3906 165.781 78.3906ZM165.781 73.8984C166.758 73.8984 167.617 73.7292 168.359 73.3906C169.115 73.0391 169.701 72.5508 170.117 71.9258C170.534 71.3008 170.742 70.5911 170.742 69.7969C170.742 68.9896 170.527 68.2604 170.098 67.6094C169.681 66.9583 169.095 66.4505 168.34 66.0859C167.585 65.7214 166.732 65.5391 165.781 65.5391C164.831 65.5391 163.971 65.7214 163.203 66.0859C162.448 66.4505 161.855 66.9583 161.426 67.6094C161.009 68.2604 160.807 68.9896 160.82 69.7969C160.807 70.5911 161.003 71.3008 161.406 71.9258C161.823 72.5508 162.409 73.0391 163.164 73.3906C163.919 73.7292 164.792 73.8984 165.781 73.8984ZM165.781 61.3984C166.602 61.3984 167.337 61.2357 167.988 60.9102C168.652 60.5716 169.167 60.1094 169.531 59.5234C169.896 58.9375 170.078 58.2734 170.078 57.5312C170.078 56.8151 169.896 56.1706 169.531 55.5977C169.167 55.0247 168.659 54.582 168.008 54.2695C167.357 53.944 166.615 53.7812 165.781 53.7812C164.948 53.7812 164.206 53.9375 163.555 54.25C162.917 54.5625 162.415 55.0052 162.051 55.5781C161.699 56.151 161.523 56.8021 161.523 57.5312C161.523 58.2734 161.706 58.9375 162.07 59.5234C162.435 60.1094 162.936 60.5716 163.574 60.9102C164.225 61.2357 164.961 61.3984 165.781 61.3984ZM191.875 78.3906C189.518 78.3906 187.487 77.8242 185.781 76.6914C184.089 75.5456 182.786 73.8854 181.875 71.7109C180.964 69.5365 180.508 66.9193 180.508 63.8594C180.508 60.7995 180.964 58.1823 181.875 56.0078C182.786 53.8333 184.089 52.1797 185.781 51.0469C187.487 49.901 189.518 49.3281 191.875 49.3281C194.219 49.3281 196.243 49.901 197.949 51.0469C199.655 52.1797 200.964 53.8398 201.875 56.0273C202.786 58.2018 203.242 60.8125 203.242 63.8594C203.242 66.9323 202.786 69.556 201.875 71.7305C200.964 73.9049 199.655 75.5586 197.949 76.6914C196.257 77.8242 194.232 78.3906 191.875 78.3906ZM191.875 73.5469C192.969 73.5469 193.913 73.1953 194.707 72.4922C195.514 71.7891 196.133 70.7279 196.562 69.3086C197.005 67.8893 197.227 66.138 197.227 64.0547C197.227 60.8125 196.758 58.3516 195.82 56.6719C194.883 54.9792 193.568 54.1328 191.875 54.1328C190.182 54.1328 188.867 54.9792 187.93 56.6719C186.992 58.3516 186.523 60.8125 186.523 64.0547C186.523 66.138 186.738 67.8893 187.168 69.3086C187.611 70.7279 188.229 71.7891 189.023 72.4922C189.831 73.1953 190.781 73.5469 191.875 73.5469ZM214.727 63.8594C213.346 63.8594 212.168 63.5469 211.191 62.9219C210.215 62.2839 209.473 61.3984 208.965 60.2656C208.457 59.1328 208.203 57.8177 208.203 56.3203C208.203 54.8229 208.457 53.5013 208.965 52.3555C209.486 51.2096 210.234 50.3242 211.211 49.6992C212.201 49.0612 213.372 48.7422 214.727 48.7422C216.12 48.7422 217.298 49.0612 218.262 49.6992C219.238 50.3242 219.974 51.2096 220.469 52.3555C220.977 53.4883 221.237 54.8099 221.25 56.3203C221.237 57.8307 220.977 59.1523 220.469 60.2852C219.961 61.418 219.219 62.2969 218.242 62.9219C217.266 63.5469 216.094 63.8594 214.727 63.8594ZM214.727 60.3828C215.547 60.3828 216.165 60.0182 216.582 59.2891C217.012 58.5599 217.24 57.5703 217.266 56.3203C217.24 55.0443 217.018 54.0417 216.602 53.3125C216.198 52.5833 215.573 52.2188 214.727 52.2188C213.906 52.2188 213.275 52.5964 212.832 53.3516C212.402 54.0938 212.188 55.0833 212.188 56.3203C212.188 57.5573 212.409 58.5469 212.852 59.2891C213.294 60.0182 213.919 60.3828 214.727 60.3828ZM233.789 78.9375C232.422 78.9375 231.25 78.625 230.273 78C229.297 77.362 228.555 76.4766 228.047 75.3438C227.552 74.2109 227.305 72.8958 227.305 71.3984C227.305 69.901 227.559 68.5794 228.066 67.4336C228.587 66.2878 229.336 65.4023 230.312 64.7773C231.289 64.1393 232.448 63.8203 233.789 63.8203C235.182 63.8203 236.367 64.1393 237.344 64.7773C238.32 65.4023 239.062 66.2878 239.57 67.4336C240.078 68.5664 240.339 69.888 240.352 71.3984C240.339 72.9089 240.078 74.2305 239.57 75.3633C239.062 76.4961 238.314 77.375 237.324 78C236.348 78.625 235.169 78.9375 233.789 78.9375ZM233.789 75.4609C234.622 75.4609 235.254 75.1029 235.684 74.3867C236.113 73.6706 236.341 72.6745 236.367 71.3984C236.341 70.1224 236.12 69.1263 235.703 68.4102C235.286 67.681 234.648 67.3229 233.789 67.3359C232.995 67.3359 232.376 67.707 231.934 68.4492C231.504 69.1914 231.289 70.1745 231.289 71.3984C231.289 72.6484 231.504 73.638 231.934 74.3672C232.376 75.0964 232.995 75.4609 233.789 75.4609ZM231.719 49.7188H236.094L216.641 78H212.266L231.719 49.7188Z" fill="#FF7E36" style="fill:#FF7E36;fill:color(display-p3 1.0000 0.4941 0.2118);fill-opacity:1;"/>
<path d="M815.078 319.809L815.195 316.898L812.734 318.461L811.992 317.172L814.59 315.844L811.992 314.496L812.734 313.207L815.195 314.77L815.078 311.859H816.562L816.426 314.77L818.887 313.207L819.648 314.496L817.051 315.844L819.648 317.172L818.887 318.461L816.426 316.898L816.562 319.809H815.078ZM826.895 324.438L831.797 319.496C832.389 318.871 832.842 318.37 833.154 317.992C833.467 317.615 833.704 317.247 833.867 316.889C834.036 316.524 834.121 316.143 834.121 315.746C834.121 315.29 834.007 314.89 833.779 314.545C833.551 314.2 833.239 313.933 832.842 313.744C832.445 313.555 831.999 313.461 831.504 313.461C830.99 313.461 830.537 313.565 830.146 313.773C829.756 313.982 829.453 314.275 829.238 314.652C829.03 315.03 828.926 315.466 828.926 315.961H826.895C826.888 315.115 827.083 314.366 827.48 313.715C827.878 313.064 828.431 312.559 829.141 312.201C829.85 311.843 830.651 311.664 831.543 311.664C832.441 311.664 833.239 311.84 833.936 312.191C834.639 312.536 835.186 313.015 835.576 313.627C835.967 314.239 836.165 314.926 836.172 315.688C836.165 316.228 836.061 316.749 835.859 317.25C835.658 317.745 835.312 318.298 834.824 318.91C834.336 319.516 833.646 320.258 832.754 321.137L829.883 324.047V324.164H836.406V326H826.895V324.438ZM843.711 326.195C842.624 326.195 841.689 325.912 840.908 325.346C840.133 324.779 839.541 323.952 839.131 322.865C838.721 321.771 838.516 320.46 838.516 318.93C838.516 317.413 838.721 316.111 839.131 315.023C839.548 313.93 840.146 313.096 840.928 312.523C841.709 311.951 842.637 311.664 843.711 311.664C844.785 311.664 845.713 311.951 846.494 312.523C847.275 313.096 847.871 313.93 848.281 315.023C848.698 316.111 848.906 317.413 848.906 318.93C848.906 320.46 848.701 321.768 848.291 322.855C847.881 323.943 847.285 324.773 846.504 325.346C845.723 325.912 844.792 326.195 843.711 326.195ZM843.711 324.34C844.349 324.34 844.896 324.135 845.352 323.725C845.807 323.308 846.156 322.696 846.396 321.889C846.637 321.081 846.758 320.095 846.758 318.93C846.758 317.771 846.634 316.785 846.387 315.971C846.146 315.15 845.798 314.532 845.342 314.115C844.886 313.692 844.342 313.48 843.711 313.48C843.079 313.48 842.536 313.692 842.08 314.115C841.624 314.532 841.273 315.15 841.025 315.971C840.785 316.785 840.664 317.771 840.664 318.93C840.664 320.095 840.785 321.081 841.025 321.889C841.266 322.696 841.615 323.308 842.07 323.725C842.526 324.135 843.073 324.34 843.711 324.34ZM851.133 324.438L856.035 319.496C856.628 318.871 857.08 318.37 857.393 317.992C857.705 317.615 857.943 317.247 858.105 316.889C858.275 316.524 858.359 316.143 858.359 315.746C858.359 315.29 858.245 314.89 858.018 314.545C857.79 314.2 857.477 313.933 857.08 313.744C856.683 313.555 856.237 313.461 855.742 313.461C855.228 313.461 854.775 313.565 854.385 313.773C853.994 313.982 853.691 314.275 853.477 314.652C853.268 315.03 853.164 315.466 853.164 315.961H851.133C851.126 315.115 851.322 314.366 851.719 313.715C852.116 313.064 852.669 312.559 853.379 312.201C854.089 311.843 854.889 311.664 855.781 311.664C856.68 311.664 857.477 311.84 858.174 312.191C858.877 312.536 859.424 313.015 859.814 313.627C860.205 314.239 860.404 314.926 860.41 315.688C860.404 316.228 860.299 316.749 860.098 317.25C859.896 317.745 859.551 318.298 859.062 318.91C858.574 319.516 857.884 320.258 856.992 321.137L854.121 324.047V324.164H860.645V326H851.133V324.438ZM862.402 321.508L868.652 311.859H871.309V321.43H873.242V323.246H871.309V326H869.277V323.246H862.402V321.508ZM869.277 321.43V314.418H869.121L864.668 321.312V321.43H869.277ZM885.254 313.422H874.824V311.938H879.121V310.082H880.977V311.938H885.254V313.422ZM880.039 314.203C880.872 314.21 881.608 314.346 882.246 314.613C882.891 314.874 883.389 315.245 883.74 315.727C884.098 316.202 884.277 316.755 884.277 317.387C884.277 318.018 884.098 318.575 883.74 319.057C883.389 319.538 882.891 319.913 882.246 320.18C881.608 320.44 880.872 320.57 880.039 320.57C879.199 320.57 878.457 320.44 877.812 320.18C877.168 319.913 876.667 319.538 876.309 319.057C875.957 318.575 875.781 318.018 875.781 317.387C875.781 316.755 875.957 316.202 876.309 315.727C876.667 315.245 877.168 314.874 877.812 314.613C878.457 314.346 879.199 314.21 880.039 314.203ZM880.039 315.629C879.544 315.629 879.111 315.701 878.74 315.844C878.369 315.987 878.079 316.192 877.871 316.459C877.669 316.726 877.572 317.035 877.578 317.387C877.572 317.927 877.79 318.354 878.232 318.666C878.682 318.972 879.284 319.125 880.039 319.125C880.788 319.125 881.39 318.972 881.846 318.666C882.301 318.354 882.533 317.927 882.539 317.387C882.533 317.035 882.425 316.726 882.217 316.459C882.008 316.192 881.715 315.987 881.338 315.844C880.96 315.701 880.527 315.629 880.039 315.629ZM888.555 314.906H891.094V316.449H888.555V321.098H886.699V310.16H888.555V314.906ZM888.555 327.66H886.699V323.5H876.992V321.996H888.555V327.66ZM906.68 323.109H904.824V317.152H900.02V315.668H904.824V313.832H900.02V312.348H904.824V310.18H906.68V323.109ZM907.129 327.289H895.273V321.977H897.148V325.785H907.129V327.289ZM894.961 319.047C896.191 319.047 897.37 319.001 898.496 318.91C899.629 318.819 900.794 318.663 901.992 318.441L902.188 319.965C900.911 320.206 899.678 320.372 898.486 320.463C897.295 320.548 895.957 320.596 894.473 320.609H893.125V311.391H894.961V319.047ZM923.555 319.711H918.262V323.988H925.391V325.512H909.375V323.988H916.426V319.711H911.367V311.508H923.398V313.012H913.223V318.227H923.555V319.711ZM937.09 326.195C936.081 326.195 935.179 326.026 934.385 325.688C933.597 325.349 932.982 324.88 932.539 324.281C932.103 323.676 931.888 322.992 931.895 322.23C931.888 321.638 932.015 321.088 932.275 320.58C932.536 320.066 932.891 319.643 933.34 319.311C933.796 318.972 934.297 318.76 934.844 318.676V318.598C934.368 318.487 933.945 318.282 933.574 317.982C933.21 317.676 932.926 317.302 932.725 316.859C932.523 316.417 932.422 315.941 932.422 315.434C932.422 314.717 932.624 314.073 933.027 313.5C933.431 312.927 933.988 312.478 934.697 312.152C935.407 311.827 936.204 311.664 937.09 311.664C937.969 311.664 938.76 311.827 939.463 312.152C940.173 312.478 940.726 312.927 941.123 313.5C941.527 314.073 941.732 314.717 941.738 315.434C941.732 315.941 941.624 316.417 941.416 316.859C941.214 317.302 940.931 317.676 940.566 317.982C940.202 318.282 939.785 318.487 939.316 318.598V318.676C939.857 318.76 940.352 318.972 940.801 319.311C941.257 319.643 941.615 320.066 941.875 320.58C942.142 321.088 942.279 321.638 942.285 322.23C942.279 322.992 942.054 323.676 941.611 324.281C941.169 324.88 940.553 325.349 939.766 325.688C938.978 326.026 938.086 326.195 937.09 326.195ZM937.09 324.418C937.695 324.418 938.223 324.32 938.672 324.125C939.128 323.93 939.479 323.656 939.727 323.305C939.974 322.947 940.098 322.536 940.098 322.074C940.098 321.592 939.967 321.16 939.707 320.775C939.447 320.391 939.089 320.092 938.633 319.877C938.177 319.662 937.663 319.555 937.09 319.555C936.51 319.555 935.99 319.662 935.527 319.877C935.065 320.092 934.704 320.391 934.443 320.775C934.189 321.16 934.069 321.592 934.082 322.074C934.069 322.536 934.183 322.943 934.424 323.295C934.665 323.646 935.013 323.923 935.469 324.125C935.931 324.32 936.471 324.418 937.09 324.418ZM937.09 317.855C937.578 317.855 938.014 317.764 938.398 317.582C938.789 317.393 939.092 317.13 939.307 316.791C939.521 316.452 939.629 316.065 939.629 315.629C939.629 315.199 939.521 314.818 939.307 314.486C939.092 314.148 938.792 313.887 938.408 313.705C938.024 313.516 937.585 313.422 937.09 313.422C936.576 313.422 936.123 313.513 935.732 313.695C935.342 313.878 935.039 314.138 934.824 314.477C934.616 314.809 934.512 315.193 934.512 315.629C934.512 316.065 934.622 316.452 934.844 316.791C935.065 317.13 935.371 317.393 935.762 317.582C936.152 317.764 936.595 317.855 937.09 317.855ZM958.457 320.434H956.602V319.594H953.184V318.422H956.602V310.18H958.457V320.434ZM945.176 316.625C949.245 316.625 952.624 316.482 955.312 316.195L955.41 317.387C953.932 317.589 952.253 317.738 950.371 317.836V320.473H948.535V317.914C947.728 317.94 946.576 317.953 945.078 317.953H944.082L943.867 316.625H945.176ZM958.457 324.789H948.379V326.137H958.984V327.484H946.562V323.559H956.621V322.309H946.484V321.02H958.457V324.789ZM949.551 310.473C950.41 310.473 951.169 310.583 951.826 310.805C952.484 311.02 952.995 311.326 953.359 311.723C953.73 312.12 953.919 312.582 953.926 313.109C953.919 313.65 953.734 314.118 953.369 314.516C953.005 314.906 952.493 315.206 951.836 315.414C951.178 315.622 950.417 315.727 949.551 315.727C948.665 315.727 947.891 315.622 947.227 315.414C946.569 315.206 946.061 314.906 945.703 314.516C945.345 314.118 945.169 313.65 945.176 313.109C945.169 312.582 945.345 312.12 945.703 311.723C946.068 311.326 946.579 311.02 947.236 310.805C947.9 310.583 948.672 310.473 949.551 310.473ZM949.551 311.723C949.017 311.723 948.551 311.781 948.154 311.898C947.757 312.009 947.451 312.169 947.236 312.377C947.021 312.585 946.914 312.829 946.914 313.109C946.914 313.533 947.152 313.868 947.627 314.115C948.102 314.356 948.743 314.477 949.551 314.477C950.345 314.477 950.98 314.353 951.455 314.105C951.93 313.858 952.168 313.526 952.168 313.109C952.168 312.829 952.061 312.585 951.846 312.377C951.631 312.169 951.325 312.009 950.928 311.898C950.531 311.781 950.072 311.723 949.551 311.723ZM980.625 327.66H978.75V310.16H980.625V327.66ZM975.41 312.035C975.41 314.743 974.762 317.152 973.467 319.262C972.178 321.365 970.098 323.103 967.227 324.477L966.25 322.973C968.548 321.879 970.29 320.548 971.475 318.979C972.666 317.41 973.353 315.59 973.535 313.52H967.09V312.035H975.41ZM997.891 312.484H992.559C992.591 313.109 992.868 313.702 993.389 314.262C993.916 314.822 994.619 315.297 995.498 315.688C996.383 316.078 997.363 316.339 998.438 316.469L997.734 317.934C996.738 317.803 995.811 317.569 994.951 317.23C994.098 316.885 993.359 316.452 992.734 315.932C992.109 315.411 991.641 314.828 991.328 314.184C991.016 314.828 990.547 315.411 989.922 315.932C989.303 316.452 988.564 316.885 987.705 317.23C986.852 317.569 985.931 317.803 984.941 317.934L984.238 316.469C985.312 316.339 986.289 316.078 987.168 315.688C988.053 315.297 988.753 314.822 989.268 314.262C989.788 313.702 990.065 313.109 990.098 312.484H984.824V311H997.891V312.484ZM999.355 320.57H992.402V323.969H990.566V320.57H983.34V319.066H999.355V320.57ZM997.578 327.289H985.332V322.289H987.188V325.785H997.578V327.289Z" fill="#B0B0B0" style="fill:#B0B0B0;fill:color(display-p3 0.6917 0.6899 0.6899);fill-opacity:1;"/>
<defs>
<linearGradient id="paint0_linear_11786_982" x1="520" y1="331" x2="520" y2="40" gradientUnits="userSpaceOnUse">
<stop stop-color="#FF7E36" stop-opacity="0" style="stop-color:none;stop-opacity:0;"/>
<stop offset="0.64981" stop-color="#FF7E36" stop-opacity="0.5" style="stop-color:#FF7E36;stop-color:color(display-p3 1.0000 0.4941 0.2118);stop-opacity:0.5;"/>
<stop offset="1" stop-color="#FF7E36" stop-opacity="0.5" style="stop-color:#FF7E36;stop-color:color(display-p3 1.0000 0.4941 0.2118);stop-opacity:0.5;"/>
</linearGradient>
</defs>
</svg>
